<svg width="353" height="304" viewBox="0 0 353 304" fill="none" xmlns="http://www.w3.org/2000/svg">
<g clip-path="url(#clip0_559_22)">
<path d="M180.29 759C282.377 737.38 335.522 697.688 339.727 639.926C346.034 553.283 108.129 622.74 203.369 441.926C298.61 261.113 384.687 256.636 339.727 143.926C294.767 31.216 174.04 -27.954 33.7899 16.8C-59.7111 46.636 -110.862 157.345 -119.663 348.926" stroke="#0077C7" stroke-width="2"/>
<path d="M138.3 759C218.383 740.012 260.074 705.154 263.372 654.425C268.32 578.332 81.693 639.331 156.406 480.535C231.118 321.738 298.64 317.808 263.372 218.82C228.103 119.834 133.398 67.87 23.377 107.174C-49.97 133.378 -90.096 230.605 -97 398.859" stroke="#0077C7" stroke-width="2"/>
<path d="M102.065 761C162.669 744.44 194.218 714.037 196.715 669.792C200.458 603.425 59.227 656.627 115.766 518.128C172.306 379.628 223.404 376.201 196.714 289.867C170.024 203.532 98.355 158.211 15.096 192.491C-40.41 215.345 -70.775 300.145 -76 446.892" stroke="#0077C7" stroke-width="2"/>
</g>
<defs>
<clipPath id="clip0_559_22">
<rect width="353" height="304" fill="white"/>
</clipPath>
</defs>
</svg>
