<svg width="375" height="658" viewBox="0 0 375 658" fill="none" xmlns="http://www.w3.org/2000/svg">
<g clip-path="url(#clip0_559_27)">
<path d="M172.71 -101C70.6231 -79.38 17.4781 -39.688 13.2731 18.074C6.96613 104.717 244.871 35.26 149.631 216.074C54.3901 396.887 -31.6869 401.364 13.2731 514.074C58.2331 626.784 178.96 685.954 319.21 641.2C412.711 611.364 463.862 500.655 472.663 309.074" stroke="#0077C7" stroke-width="2"/>
<path d="M214.7 -101C134.617 -82.012 92.9263 -47.154 89.6283 3.575C84.6803 79.668 271.307 18.669 196.594 177.465C121.882 336.262 54.3603 340.192 89.6283 439.18C124.897 538.166 219.602 590.13 329.623 550.826C402.97 524.622 443.096 427.395 450 259.141" stroke="#0077C7" stroke-width="2"/>
<path d="M250.935 -103C190.331 -86.44 158.782 -56.037 156.285 -11.792C152.542 54.575 293.773 1.373 237.234 139.872C180.694 278.372 129.596 281.799 156.286 368.133C182.976 454.468 254.645 499.789 337.904 465.509C393.41 442.655 423.775 357.855 429 211.108" stroke="#0077C7" stroke-width="2"/>
</g>
<defs>
<clipPath id="clip0_559_27">
<rect width="375" height="658" fill="white"/>
</clipPath>
</defs>
</svg>
