<svg width="32" height="32" viewBox="0 0 32 32" fill="none" xmlns="http://www.w3.org/2000/svg">
<path d="M0 10C0 5.286 0 2.929 1.464 1.464C2.93 0 5.286 0 10 0H22C26.714 0 29.071 0 30.535 1.464C32 2.93 32 5.286 32 10V22C32 26.714 32 29.071 30.535 30.535C29.072 32 26.714 32 22 32H10C5.286 32 2.929 32 1.464 30.535C0 29.072 0 26.714 0 22V10Z" fill="#F5F7FA"/>
<path d="M20.6 13.222C20.233 13.956 20.05 14.881 20.05 15.994C20.05 17.59 20.434 18.779 21.203 19.559C21.973 20.329 23.127 20.713 24.665 20.713C25.274 20.713 25.894 20.667 26.525 20.575C27.157 20.495 27.719 20.385 28.213 20.248L27.783 18.009C27.483 18.067 27.197 18.119 26.921 18.164C26.3803 18.2541 25.8332 18.3003 25.285 18.302C24.803 18.302 24.384 18.216 24.028 18.044C23.6896 17.8662 23.4133 17.5896 23.236 17.251C23.063 16.896 22.977 16.448 22.977 15.908C22.977 15.346 23.057 14.886 23.218 14.531C23.391 14.163 23.643 13.893 23.976 13.721C24.321 13.537 24.74 13.445 25.233 13.445C25.486 13.445 25.744 13.457 26.008 13.48C26.272 13.503 26.542 13.532 26.818 13.566C27.093 13.6 27.368 13.646 27.644 13.704L28.041 11.362C27.7362 11.2754 27.4253 11.2119 27.111 11.172C26.7517 11.1131 26.3895 11.073 26.026 11.052C25.6593 11.0174 25.2913 11.0001 24.923 11C23.867 11 22.977 11.19 22.254 11.568C21.5393 11.927 20.9596 12.5071 20.601 13.222H20.6ZM10.97 11.138C11.145 11.08 11.331 11.04 11.53 11.018L12.503 13.715C12.3441 13.684 12.1839 13.6596 12.023 13.642C11.5274 13.5461 11.0154 13.5819 10.538 13.746C10.228 13.837 9.894 14.01 9.537 14.263V20.565H6.723V11.173H9.278V12.26C9.6 11.961 9.894 11.72 10.158 11.535C10.423 11.351 10.694 11.219 10.97 11.138V11.138Z" fill="#0B0C12"/>
<path d="M20.368 13.091C19.98 13.862 19.785 14.831 19.785 16.001C19.785 16.217 19.792 16.426 19.805 16.629L18.407 20.565H15.195L11.752 11H14.746L16.887 18.13L18.769 11.155L21.739 11.19L21.559 11.694C21.0573 12.0591 20.6491 12.5378 20.368 13.091V13.091ZM3.346 18.098C3.116 18.34 3 18.715 3 19.224C3 19.72 3.115 20.095 3.346 20.349C3.589 20.592 3.987 20.713 4.541 20.713C5.107 20.713 5.505 20.592 5.736 20.349C5.979 20.095 6.1 19.72 6.1 19.224C6.1 18.715 5.979 18.34 5.736 18.098C5.506 17.843 5.107 17.717 4.541 17.717C3.987 17.717 3.589 17.844 3.346 18.097V18.098Z" fill="#0B0C12"/>
</svg>
